<?xml version="1.0" encoding="UTF-8"?>
<svg id="Layer_2" data-name="Layer 2" xmlns="http://www.w3.org/2000/svg" viewBox="0 0 457.2 116.62">
  <defs>
    <style>
      .cls-1 {
        fill: #fff;
        stroke-width: 0px;
      }
    </style>
  </defs>
  <g id="Layer_1-2" data-name="Layer 1">
    <g>
      <path class="cls-1" d="m107.08,54.68c-3.39-8.17-10.42-14.23-20.1-17.47-.18-2.52-.51-4.99-.99-7.4-2.71-13.5-9.89-23.29-20.23-27.57C55.42-2.03,43.42-.16,31.97,7.49,21.12,14.75,11.95,26.47,6.15,40.5.36,54.53-1.42,69.3,1.15,82.1c.98,4.9,2.55,9.3,4.65,13.13.16.44.32.87.5,1.3,4.05,9.75,13.28,16.5,26,19.03,3.55.71,7.27,1.05,11.08,1.05,9.07,0,18.68-1.98,27.93-5.82,13.14-5.46,24.12-14.08,30.91-24.27,7.19-10.79,8.92-22.1,4.87-31.85ZM25.08,100.72c-4.27-1.77-7.81-5.02-10.41-9.49-1.95-6.34-.37-13.8,4.55-21.19,5.74-8.62,15.17-15.97,26.56-20.7,8.08-3.36,16.4-5.08,24.18-5.08,2.54,0,5.02.19,7.42.56-.39,7.45-2.19,15.27-5.34,22.89-5.07,12.28-12.97,22.45-22.25,28.66-8.68,5.8-17.46,7.35-24.72,4.35ZM37.35,15.54c5.78-3.87,11.61-5.84,17.01-5.84,2.7,0,5.29.5,7.71,1.5,7.26,3,12.39,10.29,14.44,20.52.22,1.08.4,2.18.54,3.3-11.02-1.33-23.28.55-34.97,5.4-13.14,5.46-24.12,14.08-30.91,24.27-.49.74-.96,1.48-1.4,2.22.41-7.4,2.21-15.15,5.33-22.71,5.07-12.28,12.97-22.45,22.25-28.66Zm56.8,65.62c-5.74,8.62-15.17,15.97-26.56,20.7-5.08,2.11-10.26,3.57-15.33,4.37.97-.56,1.95-1.17,2.91-1.81,10.85-7.26,20.02-18.98,25.82-33.01,3.25-7.88,5.24-15.99,5.9-23.86,5.41,2.45,9.3,6.16,11.25,10.83,2.77,6.67,1.35,14.76-3.99,22.77Z"/>
      <g>
        <path class="cls-1" d="m166.99,39.15c5.84-3.63,12.23-5.44,19.15-5.44,4.94,0,9.62.94,14.02,2.83,4.4,1.89,8.27,4.47,11.6,7.75,3.33,3.28,5.93,7.13,7.82,11.53,1.89,4.41,2.83,9.13,2.83,14.16s-.94,9.73-2.83,14.09c-1.89,4.36-4.5,8.21-7.82,11.53-3.33,3.33-7.19,5.93-11.6,7.82-4.41,1.89-9.08,2.83-14.02,2.83s-9.73-.94-14.09-2.83c-4.36-1.89-8.21-4.49-11.53-7.82-3.33-3.32-5.93-7.17-7.82-11.53-1.89-4.36-2.83-9.06-2.83-14.09V10.24h14.83v59.64c0,2.96.56,5.72,1.69,8.28,1.12,2.56,2.67,4.83,4.65,6.8,1.98,1.98,4.25,3.53,6.81,4.65,2.56,1.12,5.33,1.68,8.29,1.68s5.73-.56,8.29-1.68c2.56-1.12,4.83-2.66,6.81-4.62,1.98-1.96,3.53-4.22,4.65-6.77,1.12-2.55,1.69-5.29,1.69-8.24s-.56-5.72-1.69-8.31c-1.13-2.59-2.68-4.84-4.65-6.77-1.98-1.92-4.25-3.44-6.81-4.56-2.56-1.12-5.33-1.68-8.29-1.68-1.98,0-3.87.25-5.66.74-1.8.5-3.51,1.19-5.12,2.09l-8.36-12.36Z"/>
        <path class="cls-1" d="m227.81,69.98c0-4.94.94-9.62,2.83-14.03,1.89-4.4,4.49-8.27,7.82-11.6,3.33-3.33,7.17-5.93,11.53-7.82,4.36-1.89,9.06-2.83,14.09-2.83s9.62.94,14.03,2.83c4.4,1.89,8.27,4.5,11.6,7.82,3.32,3.33,5.93,7.19,7.82,11.6,1.89,4.41,2.83,9.08,2.83,14.03s-.94,9.76-2.83,14.16c-1.89,4.41-4.5,8.25-7.82,11.53-3.33,3.28-7.19,5.87-11.6,7.75-4.41,1.89-9.08,2.83-14.03,2.83s-9.73-.94-14.09-2.83c-4.36-1.89-8.21-4.47-11.53-7.75-3.33-3.28-5.93-7.12-7.82-11.53-1.89-4.4-2.83-9.12-2.83-14.16Zm14.83,0c0,2.95.56,5.72,1.69,8.31,1.12,2.59,2.67,4.85,4.65,6.77,1.98,1.92,4.25,3.44,6.81,4.56,2.56,1.12,5.33,1.68,8.29,1.68s5.73-.56,8.29-1.68c2.56-1.12,4.83-2.63,6.81-4.56,1.98-1.92,3.53-4.18,4.65-6.77,1.12-2.59,1.69-5.36,1.69-8.31s-.56-5.7-1.69-8.24c-1.13-2.55-2.68-4.8-4.65-6.77-1.98-1.96-4.25-3.51-6.81-4.62s-5.33-1.68-8.29-1.68-5.73.56-8.29,1.68c-2.56,1.12-4.83,2.66-6.81,4.62-1.98,1.97-3.53,4.22-4.65,6.77-1.13,2.55-1.69,5.29-1.69,8.24Z"/>
        <path class="cls-1" d="m322.62,104.64h-14.83v-36.14c0-4.76.9-9.26,2.7-13.49,1.8-4.22,4.27-7.91,7.42-11.06,3.15-3.15,6.83-5.64,11.06-7.48,4.22-1.84,8.72-2.76,13.49-2.76s9.26.92,13.49,2.76c4.22,1.84,7.91,4.34,11.06,7.48,3.15,3.15,5.64,6.83,7.48,11.06,1.84,4.23,2.76,8.72,2.76,13.49v36.14h-14.83v-36.05c0-2.69-.52-5.24-1.55-7.67-1.03-2.42-2.47-4.55-4.32-6.39-1.84-1.84-3.98-3.27-6.41-4.3-2.43-1.03-4.99-1.55-7.69-1.55s-5.26.52-7.69,1.55c-2.43,1.03-4.54,2.47-6.34,4.3-1.8,1.84-3.22,3.97-4.25,6.39-1.03,2.42-1.55,4.98-1.55,7.67v36.05Z"/>
        <path class="cls-1" d="m384.65,69.98c0-4.94.94-9.62,2.83-14.03,1.89-4.4,4.49-8.27,7.82-11.6,3.33-3.33,7.17-5.93,11.53-7.82,4.36-1.89,9.06-2.83,14.09-2.83s9.62.94,14.03,2.83c4.4,1.89,8.27,4.5,11.6,7.82,3.32,3.33,5.93,7.19,7.82,11.6,1.89,4.41,2.83,9.08,2.83,14.03s-.94,9.76-2.83,14.16c-1.89,4.41-4.5,8.25-7.82,11.53-3.33,3.28-7.19,5.87-11.6,7.75-4.41,1.89-9.08,2.83-14.03,2.83s-9.73-.94-14.09-2.83c-4.36-1.89-8.21-4.47-11.53-7.75-3.33-3.28-5.93-7.12-7.82-11.53-1.89-4.4-2.83-9.12-2.83-14.16Zm14.83,0c0,2.95.56,5.72,1.69,8.31,1.12,2.59,2.67,4.85,4.65,6.77,1.98,1.92,4.25,3.44,6.81,4.56,2.56,1.12,5.33,1.68,8.29,1.68s5.73-.56,8.29-1.68c2.56-1.12,4.83-2.63,6.81-4.56,1.98-1.92,3.53-4.18,4.65-6.77,1.12-2.59,1.69-5.36,1.69-8.31s-.56-5.7-1.69-8.24c-1.13-2.55-2.68-4.8-4.65-6.77-1.98-1.96-4.25-3.51-6.81-4.62-2.56-1.12-5.33-1.68-8.29-1.68s-5.73.56-8.29,1.68c-2.56,1.12-4.83,2.66-6.81,4.62-1.98,1.97-3.53,4.22-4.65,6.77-1.13,2.55-1.69,5.29-1.69,8.24Z"/>
      </g>
    </g>
  </g>
</svg>